<svg xmlns="http://www.w3.org/2000/svg" viewBox="0 0 1411.08 1160.87"><defs><style>.cls-1{fill:#90659f;}</style></defs><g id="Capa_2" data-name="Capa 2"><g id="Capa_4_copia_2" data-name="Capa 4 copia 2"><path class="cls-1" d="M74,703.67q11.63,0,25.9-18.61T129,633.88q14.79-32.57,27.49-75.51a819.32,819.32,0,0,0,21.14-91.61l-9.52,78q-18,68-36.73,109.15T93,713.33q-19.56,18.25-40.17,18.25-26.43,0-39.64-24T0,644.26q0-35.78,8.72-76.58A526.65,526.65,0,0,1,33,486.8a431.82,431.82,0,0,1,35.68-72.29q20.07-32.2,43.33-51.89t46.51-19.68q18,0,27.75,22.54T190.79,431l-5.81,4.3q3.69-33.64-2.91-54t-21.41-20.4q-12.67,0-26.95,17.54T106,426.32a581.32,581.32,0,0,0-24.85,68.35A593.21,593.21,0,0,0,63.42,573a510,510,0,0,0-6.34,79.09q0,28.64,4.49,40.08T74,703.67ZM200.3,353A306.71,306.71,0,0,0,231,350.09a122.46,122.46,0,0,0,27.48-7.15L191.32,660q-1.59,7.88-2.91,17.53a43.65,43.65,0,0,0,.53,16.82q1.84,7.17,9.78,7.16,9.51,0,19-14t19-53.32l7.4-29.34h10L241,657.14q-7.41,29.36-18,45.1t-22.46,22.54q-11.9,6.79-23,6.8-23.27,0-32.77-20-6.87-15.74-4.49-38.29t7.13-46.88Z"/><path class="cls-1" d="M345.63,660.72q-3.7,20.06-1.85,30.78t10.84,10.74q9,0,18-14.32t19-53l7.93-29.35h10l-13.21,52.25q-6.87,27.92-17.44,44t-22.73,22.9a51.31,51.31,0,0,1-25.37,6.8q-17.43,0-26.42-8.59t-11.89-24a119.13,119.13,0,0,1-1.06-34,327.46,327.46,0,0,1,6.08-37.94L413.78,91.61q5.28-24.31-1.06-35.78T380.48,44.38l3.7-15q31.71-.69,56.29-8.23A213.26,213.26,0,0,0,487.77,0Z"/><path class="cls-1" d="M521.09,413.79q10-41.49-6.87-41.51-11.64,0-20.61,16.11t-18.5,51.17l-8.46,30.06h-10l13.74-53q7.93-29.34,19-45.09t24-22.19q12.93-6.45,25.1-6.44,17.44,0,26.42,9.3t11.1,24.34a125.66,125.66,0,0,1,0,32.56,262.6,262.6,0,0,1-6.34,34l-56,217.58q-5.3,20.06-3.17,30.78t11.1,10.74q9.51,0,18.5-14T560.2,635l8.45-29.35h10L565,657.86q-7.4,28.64-18.49,44.38t-23.52,22.54a51.82,51.82,0,0,1-25.1,6.8q-22.74,0-32-14t-8.19-37.93q1.05-24,8.46-52.61Z"/><path class="cls-1" d="M618.86,617.06q0-31.48,6.34-68.71a427.45,427.45,0,0,1,19.55-73.72,340.59,340.59,0,0,1,32-66.2q18.75-29.7,44.39-47.6a97.09,97.09,0,0,1,56.82-17.89q35.4,0,56,28.27t20.61,86.24q0,31.51-6.35,68.72a426.87,426.87,0,0,1-19.55,73.71,340.68,340.68,0,0,1-32,66.21q-18.76,29.71-44.4,47.6a97.1,97.1,0,0,1-56.81,17.89q-35.41,0-56-28.63T618.86,617.06Zm155.9-259.81q-15.33,0-30.12,18.61t-27.75,50.46a550.13,550.13,0,0,0-23,71.22,698.47,698.47,0,0,0-15.59,81.59,616.39,616.39,0,0,0-5.55,80.16q0,30.06,6.61,44t19.29,14q15.32,0,30.12-18.61t28-50.1a492.5,492.5,0,0,0,23-70.5,719.21,719.21,0,0,0,15.33-81.24,626.29,626.29,0,0,0,5.55-81.59q0-31.49-6.34-44.74T774.76,357.25Z"/><path class="cls-1" d="M996.73,246.31a305.06,305.06,0,0,0,30.66-4.29,111.81,111.81,0,0,0,28-9.31L923.7,861c-4.58,21.47-.35,37.75-9.49,49-16.62,20.46-59.39,17.93-71.72,18.65s-2.46-16.46,3.17-22.91,10.21-18,13.74-34.71ZM889.45,467.47q20.07-27.18,37.79-54.39t34.35-64.42q16.65-37.2,33.56-94.47l1.58,11.45q-11.1,49.38-27,86.24a497.14,497.14,0,0,1-34.62,66.93q-18.76,30-39.9,58Zm190.26-96.62q-12.69,0-28.28,23.62T1020,458.17a939.86,939.86,0,0,0-30.13,90.9,1072.85,1072.85,0,0,0-23.78,105.21l9.51-75.87q21.13-85.15,40.7-136.7t40.16-75.15q20.63-23.62,43.34-23.62,27,0,42.55,26.12t15.59,77.66q0,32.92-6.61,71.21a487.22,487.22,0,0,1-19.55,75.87,359.75,359.75,0,0,1-32,69.07q-19,31.5-43.34,50.1A87.38,87.38,0,0,1,1002,731.58q-15.85,0-28.8-11.45T955,687.92l4.23-13.6q6.85,21.48,15.59,30.42t20.35,9q16.9,0,32.77-18.26t29.33-49a506.64,506.64,0,0,0,23.78-68,582.94,582.94,0,0,0,15.59-75.15,515.78,515.78,0,0,0,5.29-70.86q0-32.91-5.82-47.23T1079.71,370.85Z"/><path class="cls-1" d="M1235.09,561.23q26.94-12.87,49.41-26.48t36.73-29.34q19.55-22.18,30.92-52.61t11.36-66.92q0-18.6-2.11-24c-1.42-3.57-3.53-5.36-6.35-5.36q-12.67,0-27.21,15.74T1299,415.58a460.57,460.57,0,0,0-26.16,62.27,511.46,511.46,0,0,0-19,73.72,426.88,426.88,0,0,0-7.14,76.94q0,37.23,10.31,53t27.22,15.74q17.43,0,38.58-14.67t41.75-52.6l8.45,5.72a232,232,0,0,1-27.48,45.81,154.17,154.17,0,0,1-38.31,36.14,83,83,0,0,1-46.25,14q-21.68,0-38.58-11.45t-26.16-34q-9.26-22.54-9.25-55.47t8.72-71.93a445,445,0,0,1,24.84-76.94A384.75,384.75,0,0,1,1258.87,412q22.2-31.85,49.68-50.46t58.13-18.61q19,0,31.71,12.52T1411.08,393a121.36,121.36,0,0,1-11.89,53.32,162.4,162.4,0,0,1-32,44.73,289.48,289.48,0,0,1-43.6,35.79,396.44,396.44,0,0,1-47,27.2q-23.52,11.46-42,18.61Z"/><path class="cls-1" d="M521.6,272.53a41.06,41.06,0,0,1,14.8-27.48,44.08,44.08,0,0,1,29.07-10.57q15.31,0,24,9.77t6.61,24.05a41.28,41.28,0,0,1-15.06,27.22,44.53,44.53,0,0,1-29.34,10.83q-15.33,0-23.78-9.78T521.6,272.53Z"/><path class="cls-1" d="M601,983.67a28.94,28.94,0,0,0,2.22-7,26.86,26.86,0,0,0,.18-7,54.36,54.36,0,0,0-2.84-14.53,37.31,37.31,0,0,0-17.44-20.73c-8-4.36-17.58-6-27.09-5.47l-.09-19.46,1.33-.07.08,19.58a101.34,101.34,0,0,0-19.25,2.88,72.1,72.1,0,0,0-17.26,6.87A55.83,55.83,0,0,0,497.25,964c-5,10.54-6.86,22.76-6.48,35.26a135.35,135.35,0,0,0,2,19,131.43,131.43,0,0,0,4.72,18.36,116.54,116.54,0,0,0,17,32.9,103.46,103.46,0,0,0,42,33.2c5.49,2.36,11.22,5.16,17,6.6,11.69,2.76,23.93,5.48,36.2,4.66,13.21-.92,27.35-1.63,40-4.23a340,340,0,0,0,40.79-11c23.57-8.32,40.44-17.86,59.14-34.25a198.77,198.77,0,0,0,47.69-61c6-12,18.43-32.75,22.79-46s17.33,25.08,1.79,74.35c-1.34,7.44-14.93,39.68-21.44,47.81-15.55,21.81-39.29,37.53-46.16,42-13.71,9.08-33.43,19.81-48.76,25s-32.07,10.6-47.76,12.42c-7.85.94-23.7,1.42-31.5,1.63s-39.29-1.67-55.16-7c-7.93-2.64-24.72-8.82-32.15-12.73s-15.54-8.41-22.21-13.48a144.94,144.94,0,0,1-33.7-36.52,152.45,152.45,0,0,1-19.35-44.78,161.16,161.16,0,0,1-4.38-47.71c.92-16.12,4.79-32.87,13.46-47.7A80.46,80.46,0,0,1,489,931.07a80.51,80.51,0,0,1,21.3-13.6,95.07,95.07,0,0,1,23.44-6.81,120.7,120.7,0,0,1,23.55-1.24L557.4,929l-1.33,0L556,909.49c12.37.49,23.09,1.87,33.72,9.23,5.28,3.68,13,10.29,16.54,15.63a48.25,48.25,0,0,1,7.54,16.23,57.75,57.75,0,0,1,1.61,17c0,1.42-.16,4.1-.39,5.67s-1.56,6.17-2,7.7c-.87,3.09-2.19,5-3.82,7.71-3.3,5.39-8,8.77-13.45,11.64l-.16.08c-4.3,2.26-8.21-3.66-4.54-6.84C595.82,989.37,600.11,985.53,601,983.67Z"/></g></g></svg>