<svg xmlns="http://www.w3.org/2000/svg" viewBox="0 0 1554.6 1466.66"><defs><style>.cls-1{fill:#90659f;}</style></defs><g id="Capa_2" data-name="Capa 2"><g id="Capa_4_copia_2" data-name="Capa 4 copia 2"><path class="cls-1" d="M216.17,1358.88a64.33,64.33,0,0,0,64.31,62.95H324a46,46,0,0,1,32.32,13.6,107.7,107.7,0,0,0,76,31.23h906.15a107.63,107.63,0,0,0,65.57-22.14,97.19,97.19,0,0,1,59.09-19.57h27.16a64.32,64.32,0,0,0,64.31-65.69c-.73-35.17-30.29-62.93-65.47-62.93h-37.76A54.13,54.13,0,0,1,1413.7,1281a107.7,107.7,0,0,0-75.24-30.49,106,106,0,0,0-12.15.68H343.07A18.84,18.84,0,0,0,324.24,1270h0a23.16,23.16,0,0,1-23.17,23.16H281.86C245.73,1293.19,215.42,1322.76,216.17,1358.88Z"/><path class="cls-1" d="M1338,106.53a64.34,64.34,0,0,0-64.31-63.09H1208.5A107.87,107.87,0,0,0,1121.88,0H216.15A107.66,107.66,0,0,0,142.7,28.8a54.6,54.6,0,0,1-37.11,14.64H65.38c-34,0-63,26-65.24,60a64.16,64.16,0,0,0,18.71,49.82c11.62,11.63,27.71,18.83,43.6,18.83h40.78a57.15,57.15,0,0,1,38,14.53c20.3,18.13,46.3,29.23,74.88,29.23l7.95,0,44,.13a56.34,56.34,0,0,1,56.18,56.35v880a34.71,34.71,0,0,0,34.7,34.7h814.36A56.67,56.67,0,0,0,1230,1130.4V214.57a42.49,42.49,0,0,1,42.49-42.49c35.81,0,65.59-28.7,65.59-64.35C1338,107.33,1338,106.93,1338,106.53ZM447.56,668.61h0v-.43h0a1.48,1.48,0,0,0,0,.21A1.62,1.62,0,0,0,447.56,668.61Zm.08,0a73.77,73.77,0,1,1,73.77,73.77A73.77,73.77,0,0,1,447.64,668.61Zm659.82,171c0,.17,0,.35,0,.55v0c0,1-.09,2-.14,3.14-1.07,21.52-5.84,66.86-26.69,90.58-11.79,13.41-26.82,17.76-40.28,18.3a70.87,70.87,0,0,1-13.22-.75,2.84,2.84,0,0,1-2.18.57h0a272,272,0,0,1-41.46,26.5A290.58,290.58,0,0,1,955.91,991a13.78,13.78,0,0,0-6.09,21c.38.53.77,1.08,1.15,1.63a3.27,3.27,0,0,1,.25.36c20.09,29.13,32.32,75.17,37.35,97.25,0,0,0,.06,0,.09,1.06,5.07-1,7.26-2,8.34a5,5,0,0,1-5.5,1.63c-20-5.65-63.68-20.9-84.36-50.39l-.64-.93a72.19,72.19,0,0,1-10.58-24.29,89.49,89.49,0,0,1-2-26.19c0-.19,0-.39,0-.61a7.75,7.75,0,0,0-8.45-8.34c-12.08,1.21-24.16,1.76-36.26,1.89a429.37,429.37,0,0,1-49.87-2.47,420.46,420.46,0,0,1-49.79-8.32,360.43,360.43,0,0,1-49.35-15,301.78,301.78,0,0,1-47.89-23.5c-2-1.25-4.08-2.53-6.11-3.84a18.33,18.33,0,0,0-27.16,8.91c-.29.77-.59,1.55-.9,2.33-.07.22-.15.42-.24.64-20.62,51.63-70.18,107.68-94.68,133.46l-.11.11c-5.7,5.78-10.34,5.06-12.65,4.62-3.45-.63-5.68-2.11-6.92-5.76-10-31.08-28.08-101.47-7.5-154.16l.65-1.65a113.67,113.67,0,0,1,22.57-35,141.1,141.1,0,0,1,32.49-25.42l.14-.08A14.69,14.69,0,0,0,546.34,866q-6.68-9.84-12.88-20a522.05,522.05,0,0,1-27.24-50.51l-.67-1.45a4.2,4.2,0,0,1,4.22-5.94h.09c3.72.35,7.49.52,11.29.52a119.07,119.07,0,0,0,76.37-27.55l.08-.07a4.53,4.53,0,0,1,7.24,2.22c1.72,5.89,2.9,9.27,3,9.78v0q4.95,14.25,10.92,28.14l.07.16a7.78,7.78,0,0,0,13,2,135.42,135.42,0,0,1,20.85-19.55A114.31,114.31,0,0,1,690,765.2l1.71-.47c54.7-14.75,122.72,10.85,152.54,24.18,3.51,1.63,4.73,4,5,7.51.18,2.34.4,7-6,12.09l-.12.09c-28.36,21.58-89.58,64.81-143.21,79.72l-.67.19-.3.08a11,11,0,0,0-3.7,19.53,234.47,234.47,0,0,0,23.8,15.34c24.18,13.61,51.37,23.91,79.61,31.14a377.18,377.18,0,0,0,43.13,8.4c10.25,1.37,20.58,2.39,30.87,2.88a4.87,4.87,0,0,0,4.59-7l-.06-.12c-.24-.49-.47-1-.68-1.49-1.11-2.41-2.15-5-3.12-7.62a90,90,0,0,1-5.49-25.74,72.39,72.39,0,0,1,3.26-26.33l.35-1.08c11.47-34.19,49-61.22,66.61-72.33a5.06,5.06,0,0,1,5.74,0c1.31.74,3.87,2.28,4.3,7.44v.1c1.44,22.64,2.77,70.34-8.24,104l-.14.42a90,90,0,0,1-12.15,24.48,1.2,1.2,0,0,0,1.16,1.9l.1,0a264.61,264.61,0,0,0,42.83-10.95,243.88,243.88,0,0,0,24-9.83,8.39,8.39,0,0,0,4.33-10.24l-.07-.22-.18-.57a84.56,84.56,0,0,1-3.42-17.12c-1.18-13.42,1.21-28.89,13-42.29,21.92-24.94,69.86-35.3,89.52-38.62h0l.54-.09h.1a7.07,7.07,0,0,1,7.22,4,7,7,0,0,1,.65,2.86Zm0-342.33a7.08,7.08,0,0,1-7.87,6.92h-.1l-.54-.1h0c-19.66-3.32-67.6-13.68-89.52-38.61-11.78-13.4-14.17-28.88-13-42.29a84.28,84.28,0,0,1,3.42-17.12l.18-.58.07-.21A8.39,8.39,0,0,0,995.76,395a248.87,248.87,0,0,0-24-9.83,264.58,264.58,0,0,0-42.83-10.94l-.1,0a1.2,1.2,0,0,0-1.16,1.89,89.93,89.93,0,0,1,12.15,24.49c0,.13.09.27.14.41,11,33.69,9.68,81.39,8.24,104v.1c-.43,5.15-3,6.69-4.3,7.43a5.06,5.06,0,0,1-5.74,0c-17.58-11.1-55.14-38.13-66.61-72.32l-.35-1.08a72.45,72.45,0,0,1-3.26-26.34,90,90,0,0,1,5.49-25.73q1.46-4,3.12-7.62c.21-.51.44-1,.68-1.49l.06-.13a4.86,4.86,0,0,0-4.59-7c-10.29.49-20.62,1.51-30.87,2.88a375,375,0,0,0-43.13,8.4c-28.24,7.23-55.43,17.52-79.61,31.13a236.28,236.28,0,0,0-23.8,15.35A11,11,0,0,0,699,448.2l.3.08.67.18c53.63,14.91,114.85,58.15,143.21,79.73l.12.09c6.39,5.05,6.17,9.74,6,12.08-.25,3.51-1.47,5.88-5,7.51-29.82,13.33-97.84,38.94-152.54,24.19l-1.71-.47a114.53,114.53,0,0,1-37.29-18.66,135.42,135.42,0,0,1-20.85-19.55,7.79,7.79,0,0,0-13,2l-.07.16q-6,13.88-10.92,28.14v0c-.1.5-1.28,3.88-3,9.77a4.53,4.53,0,0,1-7.24,2.22l-.08-.06a119.08,119.08,0,0,0-76.37-27.56c-3.8,0-7.57.18-11.29.53h-.09a4.19,4.19,0,0,1-4.22-5.93l.67-1.46a523.23,523.23,0,0,1,27.24-50.51q6.19-10.14,12.88-20a14.69,14.69,0,0,0-4.84-21.28l-.14-.08A141,141,0,0,1,508.87,424a113.67,113.67,0,0,1-22.57-35l-.65-1.65c-20.58-52.7-2.52-123.08,7.5-154.16,1.24-3.66,3.47-5.13,6.92-5.77,2.31-.43,6.95-1.16,12.65,4.63l.11.1C537.33,258,586.89,314,607.51,365.64c.09.22.17.43.24.65.31.78.61,1.55.9,2.32a18.34,18.34,0,0,0,27.16,8.92c2-1.31,4.06-2.59,6.11-3.84a301.84,301.84,0,0,1,47.89-23.51,361.83,361.83,0,0,1,49.35-15A424.6,424.6,0,0,1,789,326.85a429.35,429.35,0,0,1,49.87-2.46c12.1.12,24.18.67,36.26,1.88a7.74,7.74,0,0,0,8.45-8.33c0-.22,0-.43,0-.61a89.56,89.56,0,0,1,2-26.2,72.28,72.28,0,0,1,10.58-24.29l.64-.93c20.68-29.49,64.35-44.74,84.36-50.39a5.06,5.06,0,0,1,5.5,1.63c1,1.08,3.07,3.28,2,8.34,0,0,0,.06,0,.09-5,22.09-17.26,68.12-37.35,97.26l-.25.36c-.38.55-.77,1.09-1.15,1.62a13.79,13.79,0,0,0,6.09,21,288.09,288.09,0,0,1,27.55,12.48,270.48,270.48,0,0,1,41.46,26.5h0a2.84,2.84,0,0,1,2.18.57,71.7,71.7,0,0,1,13.22-.76c13.46.54,28.49,4.9,40.28,18.3,20.85,23.72,25.62,69.07,26.69,90.59,0,1.11.1,2.16.14,3.13v0c0,.2,0,.38,0,.56Z"/><path class="cls-1" d="M447.55,668.61v-.22a1.62,1.62,0,0,0,0,.22Z"/><path class="cls-1" d="M447.56,668.18a1.48,1.48,0,0,0,0,.21v-.21Z"/></g></g></svg>