<svg xmlns="http://www.w3.org/2000/svg" viewBox="0 0 1040.59 757.77"><defs><style>.cls-1{fill:#90659f;}</style></defs><g id="Capa_2" data-name="Capa 2"><g id="Capa_2-2" data-name="Capa 2"><path class="cls-1" d="M664.6,691.17a4.83,4.83,0,0,1-6.82-4.85v-.1q.6-6.4.6-13a136.74,136.74,0,0,0-31.64-87.69l-.08-.09a5.2,5.2,0,0,1,2.55-8.31c6.77-2,10.65-3.33,11.23-3.45h0q16.37-5.69,32.31-12.54l.18-.08a8.94,8.94,0,0,0,2.34-15,156.33,156.33,0,0,1-22.44-24,131.21,131.21,0,0,1-21.42-42.82l-.54-2C614,414.58,643.38,336.47,658.69,302.23c1.87-4,4.6-5.43,8.62-5.72,2.69-.2,8.08-.45,13.88,6.88l.1.14c24.78,32.56,74.43,102.86,91.55,164.44.07.27.15.52.21.77l.09.35a12.67,12.67,0,0,0,22.43,4.24A269.31,269.31,0,0,0,813.19,446c15.63-27.77,27.45-59,35.75-91.42a431.81,431.81,0,0,0,9.65-49.52c1.57-11.77,2.74-23.63,3.3-35.45a5.59,5.59,0,0,0-8-5.27l-.14.07c-.56.27-1.13.54-1.71.78q-4.15,1.91-8.75,3.58a103.39,103.39,0,0,1-29.55,6.31,83.15,83.15,0,0,1-30.24-3.75l-1.24-.4c-39.26-13.17-70.3-56.3-83-76.49a5.81,5.81,0,0,1,0-6.59c.85-1.5,2.62-4.44,8.54-4.93h.11c26-1.66,80.77-3.18,119.45,9.46l.48.16a103.34,103.34,0,0,1,28.11,13.95,1.39,1.39,0,0,0,2.18-1.34l0-.11a303.78,303.78,0,0,0-12.57-49.18,283,283,0,0,0-11.29-27.61,9.62,9.62,0,0,0-11.76-5l-.25.08-.66.2a96.41,96.41,0,0,1-19.66,3.93c-15.4,1.35-33.17-1.39-48.56-14.92C724.67,87.42,712.77,32.38,709,9.8v0c0-.22-.07-.42-.11-.62s0-.09,0-.12a8.11,8.11,0,0,1,7.94-9h.12l.64,0h0l3.6.16c24.71,1.23,76.78,6.7,104,30.65,15.39,13.53,20.39,30.79,21,46.25a80.92,80.92,0,0,1-.87,15.17,3.33,3.33,0,0,1,.66,2.51h0a311.86,311.86,0,0,1,30.43,47.61A334.94,334.94,0,0,1,890.75,174a15.83,15.83,0,0,0,24.06,7l1.87-1.32.41-.29c33.46-23.07,86.32-37.11,111.68-42.89l.1,0c5.82-1.21,8.34,1.11,9.58,2.31a5.79,5.79,0,0,1,1.87,6.31c-6.49,23-24,73.13-57.86,96.87l-1.07.74a83.11,83.11,0,0,1-27.89,12.15,103.26,103.26,0,0,1-30.08,2.31l-.7-.05a8.89,8.89,0,0,0-9.57,9.7c1.38,13.88,2,27.75,2.16,41.64a492.41,492.41,0,0,1-2.83,57.26,485.45,485.45,0,0,1-9.55,57.18,415.71,415.71,0,0,1-17.24,56.67,346.64,346.64,0,0,1-27,55c-1.44,2.35-2.9,4.69-4.41,7a21.05,21.05,0,0,0,10.24,31.19l2.67,1c.25.08.49.18.74.28,59.28,23.68,123.64,80.59,153.25,108.72l.12.12c6.64,6.55,5.81,11.88,5.31,14.53-.73,4-2.42,6.52-6.62,7.94-35.69,11.51-116.51,32.25-177,8.62l-1.89-.75a130.41,130.41,0,0,1-40.17-25.91,162,162,0,0,1-29.18-37.31l-.1-.17a16.87,16.87,0,0,0-24.43-5.55q-11.3,7.67-22.94,14.79a601.45,601.45,0,0,1-58,31.28Z"/><path class="cls-1" d="M520.05,757.76h0Z"/><path class="cls-1" d="M376,691.17a4.82,4.82,0,0,0,6.81-4.85v-.1q-.6-6.4-.6-13a136.74,136.74,0,0,1,31.64-87.69l.08-.09a5.2,5.2,0,0,0-2.55-8.31c-6.76-2-10.64-3.33-11.23-3.45h0q-16.37-5.69-32.31-12.54l-.18-.08a8.94,8.94,0,0,1-2.34-15,155.84,155.84,0,0,0,22.44-24,131.21,131.21,0,0,0,21.42-42.82l.54-2c16.94-62.81-12.46-140.92-27.77-175.16-1.87-4-4.6-5.43-8.62-5.72-2.69-.2-8.08-.45-13.88,6.88l-.1.14C334.52,336.09,284.87,406.39,267.75,468c-.07.27-.15.52-.21.77l-.09.35A12.66,12.66,0,0,1,245,473.33,269.38,269.38,0,0,1,227.4,446c-15.63-27.77-27.45-59-35.75-91.42A431.81,431.81,0,0,1,182,305.07c-1.57-11.77-2.74-23.63-3.3-35.45a5.59,5.59,0,0,1,8-5.27l.14.07c.56.27,1.13.54,1.71.78q4.16,1.91,8.75,3.58a103.39,103.39,0,0,0,29.55,6.31,83.15,83.15,0,0,0,30.24-3.75l1.24-.4c39.26-13.17,70.3-56.3,83-76.49a5.81,5.81,0,0,0,0-6.59c-.85-1.5-2.62-4.44-8.54-4.93h-.11c-26-1.66-80.77-3.18-119.45,9.46l-.48.16A103.49,103.49,0,0,0,184.7,206.5a1.38,1.38,0,0,1-2.17-1.34v-.11a303.78,303.78,0,0,1,12.57-49.18,283.06,283.06,0,0,1,11.3-27.61,9.62,9.62,0,0,1,11.76-5l.24.08.66.2a96.41,96.41,0,0,0,19.66,3.93c15.4,1.35,33.17-1.39,48.56-14.92C315.92,87.42,327.82,32.38,331.63,9.8v0c0-.22.07-.42.11-.62s0-.09,0-.12a8.11,8.11,0,0,0-7.94-9h-.12l-.64,0h0l-3.6.16c-24.71,1.23-76.78,6.7-104,30.65C200,44.37,195,61.63,194.4,77.09a81.77,81.77,0,0,0,.87,15.17,3.33,3.33,0,0,0-.66,2.51h0a311.86,311.86,0,0,0-30.43,47.61A334.94,334.94,0,0,0,149.84,174a15.83,15.83,0,0,1-24.06,7c-.61-.44-1.23-.88-1.87-1.32l-.41-.29C90,156.34,37.18,142.3,11.82,136.52l-.1,0c-5.82-1.21-8.34,1.11-9.58,2.31a5.79,5.79,0,0,0-1.87,6.31c6.49,23,24,73.13,57.86,96.87l1.07.74a83.11,83.11,0,0,0,27.89,12.15,103.26,103.26,0,0,0,30.08,2.31l.71-.05a8.88,8.88,0,0,1,9.56,9.7c-1.38,13.88-2,27.75-2.16,41.64a492.41,492.41,0,0,0,2.83,57.26,485.45,485.45,0,0,0,9.55,57.18,415.71,415.71,0,0,0,17.24,56.67,346.64,346.64,0,0,0,27,55q2.16,3.52,4.41,7a21.05,21.05,0,0,1-10.24,31.19l-2.67,1c-.25.08-.49.18-.74.28C113.37,597.77,49,654.68,19.4,682.81l-.12.12c-6.64,6.55-5.81,11.88-5.31,14.53.73,4,2.42,6.52,6.62,7.94,35.69,11.51,116.51,32.25,177,8.62l1.89-.75a130.41,130.41,0,0,0,40.17-25.91,162,162,0,0,0,29.18-37.31l.1-.17a16.88,16.88,0,0,1,24.44-5.55q11.28,7.67,22.93,14.79a601.45,601.45,0,0,0,58,31.28Z"/><path class="cls-1" d="M568.88,603.46a84.87,84.87,0,0,1-48.33,154.3h-.5a84.87,84.87,0,0,1-48.33-154.3,12.67,12.67,0,0,1,18.82,5l1.94,4.17a12.61,12.61,0,0,1-4,15.56,54.8,54.8,0,1,0,63.68,0,12.61,12.61,0,0,1-4-15.56l1.94-4.17A12.67,12.67,0,0,1,568.88,603.46Z"/><path class="cls-1" d="M520.55,757.76h0Z"/><circle class="cls-1" cx="520.55" cy="672.95" r="84.71"/></g></g></svg>